<?xml version="1.0" encoding="UTF-8"?>
<svg xmlns="http://www.w3.org/2000/svg" xmlns:xlink="http://www.w3.org/1999/xlink" width="500px" height="480px" viewBox="0 0 800 768" version="1.1">
<g id="surface1">
<path style=" stroke:none;fill-rule:nonzero;fill:#ffffff;fill-opacity:1;" d="M 164.410156 403.429688 C 164.410156 411.429688 164.0625 419.429688 163.714844 426.285156 C 163.367188 433.144531 162.671875 438.855469 161.632812 444.570312 C 160.589844 451.429688 158.855469 456 156.769531 460.570312 C 154.6875 465.144531 151.910156 468.570312 148.785156 470.855469 C 146.355469 472 142.535156 474.285156 137.328125 474.285156 C 132.117188 475.429688 126.5625 475.429688 120.660156 475.429688 C 117.535156 475.429688 114.757812 475.429688 111.980469 475.429688 C 109.546875 475.429688 107.464844 474.285156 105.730469 474.285156 C 101.910156 473.144531 98.785156 469.714844 96.703125 465.144531 C 93.921875 459.429688 91.839844 453.714844 90.796875 445.714844 C 89.410156 437.714844 88.714844 425.144531 88.714844 408 L 88.714844 398.855469 L 96.703125 400 L 96.703125 408 C 96.703125 418.285156 97.046875 425.144531 97.394531 430.855469 C 97.742188 435.429688 98.785156 438.855469 100.519531 442.285156 C 102.257812 444.570312 103.992188 446.855469 106.769531 448 C 108.507812 449.144531 110.589844 449.144531 113.019531 449.144531 C 115.453125 449.144531 118.230469 449.144531 121.355469 449.144531 C 126.910156 449.144531 132.117188 449.144531 136.632812 448 C 141.144531 446.855469 144.617188 445.714844 146.703125 444.570312 C 148.785156 443.429688 150.519531 441.144531 151.5625 440 C 152.953125 437.714844 153.644531 435.429688 154.339844 432 C 155.035156 428.570312 155.382812 425.144531 155.730469 420.570312 C 156.078125 416 156.078125 410.285156 156.078125 404.570312 C 156.078125 396.570312 155.382812 389.714844 154.339844 386.285156 C 153.644531 384 152.257812 380.570312 150.171875 378.285156 C 150.171875 377.144531 149.828125 377.144531 149.132812 377.144531 C 148.4375 377.144531 147.742188 377.144531 147.394531 377.144531 C 146.007812 377.144531 144.964844 377.144531 144.269531 377.144531 C 143.230469 377.144531 142.535156 377.144531 141.839844 377.144531 L 115.105469 377.144531 C 109.546875 377.144531 105.035156 376 101.910156 371.429688 C 98.4375 368 96.007812 364.570312 94.964844 362.285156 C 92.882812 358.855469 91.492188 353.144531 90.796875 347.429688 C 89.757812 340.570312 89.410156 330.285156 89.410156 317.714844 C 89.410156 296 90.796875 280 93.578125 270.855469 C 96.355469 260.570312 101.910156 254.855469 110.242188 251.429688 C 113.019531 250.285156 116.144531 249.144531 119.617188 249.144531 C 123.089844 248 126.5625 248 130.035156 248 C 133.507812 248 136.632812 248 139.410156 249.144531 C 142.1875 250.285156 144.617188 250.285156 146.703125 251.429688 C 150.867188 253.714844 154.339844 258.285156 156.769531 265.144531 C 159.203125 270.855469 160.9375 278.855469 161.980469 288 C 162.328125 291.429688 162.671875 296 163.019531 301.714844 C 163.367188 307.429688 163.367188 313.144531 163.367188 320 L 155.382812 321.144531 C 155.382812 315.429688 155.382812 310.855469 155.035156 307.429688 C 155.035156 302.855469 154.6875 299.429688 154.339844 297.144531 C 153.644531 291.429688 152.605469 288 151.214844 284.570312 C 149.828125 281.144531 147.742188 278.855469 144.964844 277.714844 C 143.230469 276.570312 141.144531 275.429688 138.019531 275.429688 C 134.894531 274.285156 131.769531 274.285156 128.992188 274.285156 C 122.394531 274.285156 116.144531 275.429688 110.9375 277.714844 C 105.382812 280 101.910156 283.429688 100.171875 289.144531 C 98.4375 294.855469 97.394531 304 97.394531 317.714844 C 97.394531 328 98.089844 334.855469 99.132812 338.285156 C 99.828125 340.570312 101.5625 344 104.339844 346.285156 C 107.117188 348.570312 110.589844 350.855469 115.453125 350.855469 L 142.1875 350.855469 C 142.882812 350.855469 143.578125 350.855469 144.269531 350.855469 C 144.964844 350.855469 145.660156 350.855469 146.355469 350.855469 C 148.089844 350.855469 149.480469 350.855469 150.519531 350.855469 C 151.5625 350.855469 152.605469 352 153.644531 353.144531 C 156.421875 356.570312 158.507812 358.855469 159.546875 361.144531 C 161.285156 364.570312 162.671875 370.285156 163.367188 376 C 164.0625 382.855469 164.410156 392 164.410156 403.429688 Z M 164.410156 403.429688 "/>
<path style=" stroke:none;fill-rule:nonzero;fill:#ffffff;fill-opacity:1;" d="M 252.605469 394.285156 C 252.605469 403.429688 252.605469 410.285156 252.257812 417.144531 C 251.910156 424 251.910156 429.714844 251.5625 434.285156 C 250.867188 444.570312 249.480469 452.570312 247.394531 458.285156 C 245.3125 464 242.535156 468.570312 239.410156 470.855469 C 237.328125 472 234.203125 473.144531 230.382812 474.285156 C 226.5625 475.429688 222.046875 475.429688 216.492188 475.429688 C 202.257812 475.429688 192.882812 474.285156 188.019531 470.855469 C 184.894531 468.570312 182.464844 465.144531 180.382812 460.570312 C 178.296875 454.855469 176.910156 448 175.867188 440 C 175.171875 433.144531 174.480469 424 173.785156 411.429688 C 173.4375 398.855469 173.089844 384 173.089844 365.714844 C 173.089844 349.714844 173.089844 334.855469 173.4375 322.285156 C 173.785156 309.714844 174.132812 299.429688 174.828125 292.570312 C 175.867188 281.144531 177.605469 272 179.6875 266.285156 C 182.117188 259.429688 185.242188 254.855469 189.0625 253.714844 C 191.839844 252.570312 195.660156 251.429688 199.828125 250.285156 C 203.992188 249.144531 209.203125 249.144531 214.757812 249.144531 C 225.867188 249.144531 233.507812 251.429688 238.367188 254.855469 C 241.492188 257.144531 243.921875 261.714844 246.007812 268.570312 C 248.089844 275.429688 249.480469 282.285156 250.171875 291.429688 C 250.519531 294.855469 250.519531 299.429688 250.867188 306.285156 C 250.867188 313.144531 251.214844 320 251.214844 329.144531 L 243.230469 329.144531 C 243.230469 313.144531 242.882812 302.855469 242.535156 298.285156 C 242.1875 293.714844 241.492188 289.144531 240.453125 286.855469 C 239.410156 283.429688 238.019531 282.285156 236.632812 281.144531 C 234.546875 280 231.769531 277.714844 227.953125 277.714844 C 224.828125 274.285156 220.3125 274.285156 215.453125 274.285156 C 204.6875 274.285156 196.355469 275.429688 190.796875 278.855469 C 186.632812 281.144531 183.855469 288 183.160156 299.429688 C 182.464844 306.285156 182.117188 315.429688 181.769531 325.714844 C 181.421875 337.144531 181.421875 349.714844 181.421875 365.714844 C 181.421875 381.714844 181.421875 395.429688 181.769531 405.714844 C 182.117188 416 182.464844 425.144531 183.160156 430.855469 C 184.203125 438.855469 186.285156 444.570312 189.410156 446.855469 C 191.839844 448 194.964844 449.144531 199.480469 450.285156 C 203.992188 451.429688 209.546875 451.429688 216.144531 451.429688 C 226.214844 451.429688 233.160156 450.285156 236.632812 448 C 240.453125 445.714844 242.535156 440 243.230469 430.855469 C 243.578125 427.429688 243.578125 422.855469 243.921875 417.144531 C 243.921875 411.429688 244.269531 404.570312 244.269531 396.570312 Z M 252.605469 394.285156 "/>
<path style=" stroke:none;fill-rule:nonzero;fill:#ffffff;fill-opacity:1;" d="M 325.867188 462.855469 L 265.796875 462.855469 C 263.019531 462.855469 261.632812 458.285156 261.632812 449.144531 L 261.632812 261.714844 C 261.632812 252.570312 263.019531 248 265.796875 248 L 325.519531 248 L 325.519531 274.285156 L 269.964844 274.285156 L 269.964844 435.429688 L 325.867188 435.429688 Z M 325.867188 462.855469 "/>
<path style=" stroke:none;fill-rule:nonzero;fill:#ffffff;fill-opacity:1;" d="M 263.019531 333.714844 L 301.214844 333.714844 L 301.214844 360 L 263.019531 360 Z M 263.019531 333.714844 "/>
<path style=" stroke:none;fill-rule:nonzero;fill:#ffffff;fill-opacity:1;" d="M 413.019531 443.429688 L 407.464844 461.714844 L 346.355469 274.285156 L 346.355469 461.714844 L 338.367188 461.714844 L 338.367188 261.714844 C 338.367188 252.570312 339.757812 248 342.535156 248 L 348.089844 248 C 348.4375 248 349.132812 248 349.480469 249.144531 C 350.171875 250.285156 350.519531 250.285156 350.867188 251.429688 Z M 415.453125 462.855469 L 407.464844 462.855469 L 407.464844 248 L 415.453125 248 Z M 415.453125 462.855469 "/>
<path style=" stroke:none;fill-rule:nonzero;fill:#ffffff;fill-opacity:1;" d="M 494.269531 274.285156 L 424.828125 274.285156 L 424.828125 248 L 494.269531 248 Z M 463.367188 462.855469 L 455.382812 462.855469 L 455.382812 304 L 463.367188 304 Z M 463.367188 462.855469 "/>
<path style=" stroke:none;fill-rule:nonzero;fill:rgb(10.980392%,45.882353%,73.72549%);fill-opacity:1;" d="M 48.089844 365.714844 L 36.632812 365.714844 L 42.535156 328 Z M 48.089844 365.714844 "/>
<path style=" stroke:none;fill-rule:nonzero;fill:#ffffff;fill-opacity:1;" d="M 76.5625 468.570312 L 42.535156 270.855469 L 8.160156 468.570312 L 0.867188 454.855469 L 36.285156 250.285156 C 36.632812 248 37.328125 246.855469 37.671875 245.714844 C 38.367188 244.570312 39.0625 243.429688 39.757812 243.429688 L 44.617188 243.429688 C 45.3125 243.429688 46.007812 244.570312 46.703125 245.714844 C 47.394531 246.855469 47.742188 249.144531 48.089844 250.285156 L 83.160156 454.855469 Z M 76.5625 468.570312 "/>
<path style=" stroke:none;fill-rule:nonzero;fill:rgb(10.980392%,45.882353%,73.72549%);fill-opacity:1;" d="M 132.464844 22.855469 L 86.632812 22.855469 L 86.632812 179.429688 L 80.035156 179.429688 L 80.035156 12.570312 C 80.035156 5.714844 81.078125 1.144531 83.507812 1.144531 L 132.464844 1.144531 Z M 125.519531 93.714844 L 86.632812 93.714844 L 86.632812 72 L 125.519531 72 Z M 125.519531 93.714844 "/>
<path style=" stroke:none;fill-rule:nonzero;fill:rgb(10.980392%,45.882353%,73.72549%);fill-opacity:1;" d="M 198.785156 123.429688 C 198.785156 130.285156 198.4375 136 198.089844 141.714844 C 197.742188 147.429688 197.046875 152 196.355469 155.429688 C 195.3125 160 194.269531 164.570312 192.535156 168 C 190.796875 171.429688 188.714844 173.714844 186.285156 174.855469 C 184.546875 176 181.421875 177.144531 177.605469 177.144531 C 173.4375 177.144531 169.269531 178.285156 164.757812 177.144531 C 162.328125 177.144531 159.894531 177.144531 158.160156 176 C 156.421875 176 154.6875 174.855469 153.296875 174.855469 C 150.519531 173.714844 148.089844 171.429688 146.355469 168 C 144.269531 163.429688 142.535156 158.855469 141.839844 152 C 140.796875 145.144531 140.453125 136 140.453125 123.429688 L 140.453125 116.570312 L 146.703125 117.714844 L 146.703125 124.570312 C 146.703125 132.570312 146.703125 138.285156 147.046875 141.714844 C 147.394531 145.144531 148.089844 148.570312 149.480469 150.855469 C 150.519531 153.144531 152.257812 154.285156 154.339844 155.429688 C 155.730469 156.570312 157.117188 156.570312 159.203125 156.570312 C 160.9375 156.570312 163.367188 156.570312 165.796875 157.714844 C 169.964844 157.714844 174.132812 157.714844 177.605469 157.714844 C 181.078125 157.714844 183.855469 156.570312 185.589844 155.429688 C 187.328125 154.285156 188.714844 153.144531 189.410156 152 C 190.453125 150.855469 191.144531 148.570312 191.492188 145.144531 C 191.839844 142.855469 192.1875 139.429688 192.535156 136 C 192.882812 132.570312 192.882812 128 192.882812 123.429688 C 192.882812 116.570312 192.535156 112 191.839844 108.570312 C 191.144531 106.285156 190.105469 104 188.714844 102.855469 C 188.367188 102.855469 188.019531 101.714844 187.671875 101.714844 C 187.328125 101.714844 186.632812 101.714844 186.285156 101.714844 C 185.242188 101.714844 184.546875 101.714844 183.855469 101.714844 C 183.160156 101.714844 182.464844 101.714844 181.769531 101.714844 L 160.9375 100.570312 C 156.769531 100.570312 153.296875 98.285156 150.519531 96 C 147.742188 93.714844 146.007812 90.285156 144.964844 89.144531 C 143.578125 85.714844 142.535156 82.285156 141.839844 77.714844 C 141.144531 72 140.796875 64 140.796875 54.855469 C 140.796875 37.714844 141.839844 25.144531 143.921875 18.285156 C 146.355469 10.285156 150.519531 5.714844 157.117188 3.429688 C 159.546875 2.285156 161.980469 2.285156 164.410156 2.285156 C 167.1875 2.285156 169.617188 2.285156 172.394531 2.285156 C 174.828125 2.285156 177.257812 2.285156 179.6875 3.429688 C 181.769531 3.429688 183.855469 4.570312 185.242188 5.714844 C 188.367188 8 191.144531 11.429688 193.230469 17.144531 C 194.964844 21.714844 196.355469 28.570312 197.046875 35.429688 C 197.394531 37.714844 197.394531 42.285156 197.742188 45.714844 C 198.089844 50.285156 198.089844 54.855469 198.089844 60.570312 L 191.839844 60.570312 C 191.839844 56 191.839844 52.570312 191.839844 49.144531 C 191.839844 45.714844 191.492188 43.429688 191.492188 41.144531 C 191.144531 36.570312 190.453125 34.285156 189.0625 30.855469 C 188.019531 28.570312 186.285156 26.285156 184.203125 25.144531 C 182.8125 24 181.078125 24 178.992188 22.855469 C 176.5625 21.714844 174.480469 21.714844 172.046875 21.714844 C 166.839844 21.714844 161.980469 21.714844 157.8125 24 C 153.644531 25.144531 150.867188 28.570312 149.480469 32 C 148.089844 36.570312 147.394531 43.429688 147.046875 53.714844 C 147.046875 61.714844 147.394531 66.285156 148.4375 69.714844 C 149.132812 72 150.519531 74.285156 152.605469 76.570312 C 154.339844 78.855469 157.117188 80 160.589844 80 L 181.421875 81.144531 C 182.117188 81.144531 182.464844 81.144531 183.160156 81.144531 C 183.855469 81.144531 184.203125 81.144531 184.894531 81.144531 C 186.285156 81.144531 187.328125 81.144531 188.019531 82.285156 C 188.714844 82.285156 189.757812 83.429688 190.453125 83.429688 C 192.535156 85.714844 194.269531 88 194.964844 90.285156 C 196.355469 93.714844 197.394531 97.144531 197.742188 101.714844 C 198.4375 107.429688 198.785156 114.285156 198.785156 123.429688 Z M 198.785156 123.429688 "/>
<path style=" stroke:none;fill-rule:nonzero;fill:rgb(10.980392%,45.882353%,73.72549%);fill-opacity:1;" d="M 63.367188 163.429688 L 58.507812 179.429688 L 8.160156 22.855469 L 8.160156 178.285156 L 1.5625 178.285156 L 1.5625 12.570312 C 1.5625 5.714844 2.605469 1.144531 5.035156 1.144531 L 9.894531 1.144531 C 10.242188 1.144531 10.589844 1.144531 11.285156 2.285156 C 11.285156 3.429688 11.632812 3.429688 11.980469 4.570312 Z M 65.453125 179.429688 L 58.855469 179.429688 L 58.855469 1.144531 L 65.453125 1.144531 Z M 65.453125 179.429688 "/>
</g>
</svg>
