<?xml version="1.0" encoding="UTF-8"?>
<svg xmlns="http://www.w3.org/2000/svg" xmlns:xlink="http://www.w3.org/1999/xlink" width="500px" height="480px" viewBox="0 0 800 768" version="1.1">
<g id="surface1">
<path style=" stroke:none;fill-rule:nonzero;fill:#ffffff;fill-opacity:1;" d="M 113.816406 318.199219 C 111.945312 302.230469 109.601562 289.941406 105.855469 282.570312 C 103.042969 276.429688 98.828125 272.742188 93.675781 270.285156 C 88.523438 267.828125 79.15625 265.371094 65.574219 265.371094 L 7.960938 265.371094 C 4.214844 265.371094 2.34375 270.285156 2.34375 280.113281 L 2.34375 496.34375 C 2.34375 506.171875 4.214844 511.085938 7.960938 511.085938 L 66.042969 511.085938 C 77.28125 511.085938 85.246094 509.855469 90.867188 507.398438 C 99.765625 503.714844 106.324219 492.65625 110.539062 476.6875 C 114.753906 459.484375 116.628906 431.230469 116.628906 394.371094 C 116.628906 361.199219 115.691406 336.628906 113.816406 318.199219 Z M 102.105469 455.800781 C 99.765625 468.085938 95.550781 476.6875 88.992188 479.144531 C 84.308594 481.601562 76.816406 481.601562 66.042969 481.601562 L 13.582031 481.601562 L 13.582031 294.855469 L 65.574219 294.855469 C 71.664062 294.855469 76.816406 294.855469 81.03125 296.085938 C 85.246094 297.3125 88.992188 297.3125 91.335938 298.542969 C 96.957031 301 100.703125 308.371094 102.574219 320.65625 C 104.917969 334.171875 105.855469 358.742188 105.855469 394.371094 C 105.386719 423.855469 104.449219 444.742188 102.105469 455.800781 Z M 102.105469 455.800781 "/>
<path style=" stroke:none;fill-rule:nonzero;fill:#ffffff;fill-opacity:1;" d="M 133.957031 265.371094 L 145.199219 265.371094 L 145.199219 511.085938 L 133.957031 511.085938 Z M 133.957031 265.371094 "/>
<path style=" stroke:none;fill-rule:nonzero;fill:#ffffff;fill-opacity:1;" d="M 274.941406 430 C 274.472656 441.058594 274.472656 449.65625 274.003906 455.800781 C 273.066406 469.3125 271.195312 480.371094 268.851562 487.742188 C 266.507812 495.113281 262.761719 500.027344 258.078125 504.941406 C 255.269531 507.398438 251.054688 508.628906 244.496094 509.855469 C 238.40625 511.085938 230.914062 512.3125 222.011719 512.3125 C 205.152344 512.3125 192.972656 511.085938 185.480469 507.398438 C 177.984375 503.714844 172.363281 495.113281 168.617188 480.371094 C 166.742188 473 165.808594 461.941406 164.871094 447.199219 C 163.933594 431.230469 163.464844 412.800781 163.464844 389.457031 C 163.464844 357.515625 164.402344 332.941406 166.277344 315.742188 C 168.148438 294.855469 173.300781 281.34375 181.265625 273.972656 C 184.542969 271.515625 189.226562 269.058594 195.316406 267.828125 C 201.40625 266.601562 208.898438 265.371094 217.796875 265.371094 C 223.886719 265.371094 230.914062 265.371094 237.9375 266.601562 C 244.964844 267.828125 249.648438 267.828125 252.457031 269.058594 C 258.078125 271.515625 262.292969 275.199219 266.042969 283.800781 C 269.789062 291.171875 272.128906 301 274.003906 314.515625 C 274.472656 319.429688 274.941406 324.34375 275.410156 329.257812 C 275.878906 334.171875 275.878906 341.542969 275.878906 348.914062 L 265.105469 350.144531 C 265.105469 345.230469 265.105469 339.085938 264.636719 335.398438 C 264.636719 330.484375 264.167969 326.800781 263.699219 324.34375 C 262.761719 316.972656 261.355469 312.058594 259.015625 307.144531 C 256.671875 303.457031 254.332031 299.769531 251.519531 298.542969 C 248.710938 297.3125 244.027344 296.085938 237.46875 296.085938 C 230.914062 294.855469 224.355469 294.855469 218.265625 294.855469 C 209.835938 294.855469 202.808594 294.855469 197.1875 296.085938 C 191.570312 297.3125 187.820312 298.542969 185.011719 301 C 183.136719 302.230469 181.265625 305.914062 180.328125 308.371094 C 178.921875 312.058594 177.984375 316.972656 177.515625 321.886719 C 176.113281 337.855469 175.175781 359.972656 175.175781 388.230469 C 175.175781 409.113281 175.644531 425.085938 176.113281 437.371094 C 176.582031 449.65625 177.515625 458.257812 178.921875 464.398438 C 179.859375 468.085938 181.265625 471.769531 182.667969 474.230469 C 184.074219 476.6875 185.949219 477.914062 188.289062 479.144531 C 194.847656 481.601562 206.554688 482.828125 222.949219 482.828125 C 240.28125 482.828125 251.054688 480.371094 255.738281 476.6875 C 258.546875 474.230469 260.421875 470.542969 261.824219 466.855469 C 263.230469 463.171875 264.167969 457.027344 264.636719 448.429688 C 265.105469 443.515625 265.105469 437.371094 265.574219 430 C 265.574219 422.628906 266.042969 412.800781 266.042969 400.515625 L 223.417969 400.515625 L 223.417969 372.257812 L 271.195312 372.257812 C 274.941406 372.257812 276.8125 377.171875 276.8125 387 C 274.941406 404.199219 274.941406 418.941406 274.941406 430 Z M 274.941406 430 "/>
<path style=" stroke:none;fill-rule:nonzero;fill:#ffffff;fill-opacity:1;" d="M 293.207031 266.601562 L 304.449219 266.601562 L 304.449219 512.3125 L 293.207031 512.3125 Z M 293.207031 266.601562 "/>
<path style=" stroke:none;fill-rule:nonzero;fill:rgb(10.980392%,45.882353%,73.72549%);fill-opacity:1;" d="M 488.992188 400.515625 L 473.066406 400.515625 L 481.027344 358.742188 Z M 488.992188 400.515625 "/>
<path style=" stroke:none;fill-rule:nonzero;fill:#ffffff;fill-opacity:1;" d="M 527.867188 512.3125 L 481.027344 296.085938 L 434.191406 512.3125 L 424.355469 497.570312 L 473.066406 273.972656 C 473.535156 271.515625 474.472656 270.285156 474.941406 269.058594 C 475.875 267.828125 476.8125 266.601562 477.75 266.601562 L 484.308594 266.601562 C 485.242188 266.601562 486.179688 267.828125 487.117188 269.058594 C 488.054688 270.285156 488.523438 272.742188 488.992188 273.972656 L 537.234375 497.570312 Z M 527.867188 512.3125 "/>
<path style=" stroke:none;fill-rule:nonzero;fill:#ffffff;fill-opacity:1;" d="M 634.65625 512.3125 L 555.96875 512.3125 C 552.222656 512.3125 550.347656 507.398438 550.347656 497.570312 L 550.347656 265.371094 L 561.589844 265.371094 L 561.589844 481.601562 L 634.65625 481.601562 Z M 634.65625 512.3125 "/>
<path style=" stroke:none;fill-rule:nonzero;fill:#ffffff;fill-opacity:1;" d="M 366.273438 321.886719 L 377.515625 321.886719 L 377.515625 512.3125 L 366.273438 512.3125 Z M 366.273438 321.886719 "/>
<path style=" stroke:none;fill-rule:nonzero;fill:#ffffff;fill-opacity:1;" d="M 325.992188 266.601562 L 418.265625 266.601562 L 418.265625 294.855469 L 325.992188 294.855469 Z M 325.992188 266.601562 "/>
<path style=" stroke:none;fill-rule:nonzero;fill:rgb(10.980392%,45.882353%,73.72549%);fill-opacity:1;" d="M 183.605469 29.484375 L 120.375 29.484375 L 120.375 201.484375 L 111.007812 201.484375 L 111.007812 17.199219 C 111.007812 8.601562 112.410156 4.914062 115.691406 4.914062 L 183.605469 4.914062 Z M 174.238281 108.113281 L 120.375 108.113281 L 120.375 83.542969 L 174.238281 83.542969 Z M 174.238281 108.113281 "/>
<path style=" stroke:none;fill-rule:nonzero;fill:rgb(10.980392%,45.882353%,73.72549%);fill-opacity:1;" d="M 275.410156 140.058594 C 275.410156 147.429688 274.941406 153.570312 274.472656 159.714844 C 274.003906 165.855469 273.066406 170.769531 272.128906 175.6875 C 270.726562 180.601562 268.851562 185.515625 266.976562 189.199219 C 264.636719 192.886719 261.824219 195.34375 258.546875 197.800781 C 255.738281 199.027344 251.988281 200.257812 246.367188 200.257812 C 240.75 200.257812 235.128906 201.484375 228.570312 200.257812 C 225.292969 200.257812 222.011719 200.257812 219.671875 199.027344 C 216.859375 199.027344 214.988281 197.800781 212.644531 197.800781 C 208.429688 196.570312 205.152344 194.113281 202.808594 189.199219 C 199.53125 184.285156 197.65625 179.371094 196.253906 172 C 194.847656 164.628906 194.378906 153.570312 194.378906 140.058594 L 194.378906 132.6875 L 202.808594 133.914062 L 202.808594 141.285156 C 202.808594 149.886719 202.808594 156.027344 203.746094 160.941406 C 204.214844 164.628906 205.152344 168.3125 207.023438 170.769531 C 208.898438 173.230469 210.773438 174.457031 213.582031 175.6875 C 215.457031 176.914062 217.328125 176.914062 220.140625 176.914062 C 222.949219 176.914062 225.761719 176.914062 229.039062 178.144531 C 235.128906 178.144531 240.28125 178.144531 245.433594 178.144531 C 250.585938 178.144531 253.863281 176.914062 256.207031 175.6875 C 258.546875 174.457031 260.421875 173.230469 261.355469 172 C 262.761719 170.769531 263.699219 168.3125 264.636719 164.628906 C 265.105469 162.171875 266.042969 158.484375 266.042969 154.800781 C 266.507812 151.113281 266.507812 146.199219 266.507812 141.285156 C 266.507812 133.914062 266.042969 129 265.105469 125.3125 C 264.167969 122.855469 262.761719 120.398438 260.421875 119.171875 C 259.953125 119.171875 259.484375 117.941406 259.015625 117.941406 C 258.546875 117.941406 257.609375 117.941406 257.140625 117.941406 C 255.738281 117.941406 254.800781 117.941406 253.863281 117.941406 C 252.925781 117.941406 251.988281 117.941406 251.054688 117.941406 L 222.480469 116.714844 C 216.394531 116.714844 211.707031 114.257812 207.960938 111.800781 C 204.214844 108.113281 201.871094 105.65625 200.46875 104.429688 C 198.59375 100.742188 196.71875 97.058594 195.785156 90.914062 C 194.847656 84.769531 194.378906 76.171875 194.378906 65.113281 C 194.378906 46.6875 195.785156 33.171875 199.0625 25.800781 C 202.339844 17.199219 208.429688 12.285156 217.328125 9.828125 C 220.609375 8.601562 223.886719 8.601562 227.632812 8.601562 C 231.382812 8.601562 235.128906 8.601562 238.875 8.601562 C 242.621094 8.601562 245.902344 8.601562 248.710938 9.828125 C 251.988281 11.058594 254.332031 11.058594 256.671875 12.285156 C 260.890625 14.742188 264.636719 18.429688 267.445312 24.570312 C 270.257812 29.484375 271.660156 36.855469 273.066406 44.230469 C 273.535156 46.6875 273.535156 51.601562 274.003906 56.515625 C 274.472656 61.429688 274.472656 66.34375 274.472656 72.484375 L 266.042969 72.484375 C 266.042969 67.570312 266.042969 63.886719 266.042969 60.199219 C 266.042969 56.515625 265.574219 54.058594 265.574219 51.601562 C 265.105469 46.6875 263.699219 43 262.292969 40.542969 C 260.890625 38.085938 258.546875 35.628906 255.738281 34.398438 C 253.863281 33.171875 251.519531 33.171875 248.242188 31.941406 C 244.964844 30.714844 242.152344 30.714844 238.875 30.714844 C 231.847656 30.714844 225.292969 30.714844 219.203125 33.171875 C 213.582031 34.398438 209.367188 38.085938 207.492188 43 C 205.621094 47.914062 204.214844 55.285156 204.214844 67.570312 C 204.214844 76.171875 204.683594 82.3125 206.089844 84.769531 C 206.089844 83.542969 207.960938 86 211.242188 88.457031 C 214.050781 90.914062 217.796875 92.144531 222.949219 92.144531 L 251.519531 93.371094 C 252.457031 93.371094 252.925781 93.371094 253.863281 93.371094 C 254.800781 93.371094 255.269531 93.371094 256.207031 93.371094 C 258.078125 93.371094 259.484375 93.371094 260.890625 94.601562 C 262.292969 94.601562 263.230469 95.828125 264.167969 95.828125 C 266.976562 98.285156 269.320312 100.742188 270.726562 103.199219 C 272.597656 106.886719 274.003906 110.570312 274.941406 115.484375 C 274.941406 122.855469 275.410156 130.230469 275.410156 140.058594 Z M 275.410156 140.058594 "/>
<path style=" stroke:none;fill-rule:nonzero;fill:rgb(10.980392%,45.882353%,73.72549%);fill-opacity:1;" d="M 88.523438 184.285156 L 81.96875 201.484375 L 11.710938 29.484375 L 11.710938 201.484375 L 2.34375 201.484375 L 2.34375 18.429688 C 2.34375 9.828125 3.746094 6.144531 7.027344 6.144531 L 13.582031 6.144531 C 14.050781 6.144531 14.519531 6.144531 15.457031 7.371094 C 15.925781 8.601562 16.394531 8.601562 16.863281 9.828125 Z M 91.335938 201.484375 L 81.96875 201.484375 L 81.96875 6.144531 L 91.335938 6.144531 Z M 91.335938 201.484375 "/>
</g>
</svg>
